<mxfile host="app.diagrams.net" modified="2022-07-14T03:57:55.926Z" agent="5.0 (Macintosh; Intel Mac OS X 10_15_7) AppleWebKit/537.36 (KHTML, like Gecko) Chrome/103.0.0.0 Safari/537.36" etag="jLiQ2naybax3cpER7MGR" version="20.1.1" type="github">
  <diagram id="6r0_a1HDc3w-jd7aQ7qa" name="Page-1">
    <mxGraphModel dx="912" dy="491" grid="1" gridSize="10" guides="1" tooltips="1" connect="1" arrows="1" fold="1" page="1" pageScale="1" pageWidth="827" pageHeight="1169" math="0" shadow="0">
      <root>
        <mxCell id="0" />
        <mxCell id="1" parent="0" />
        <mxCell id="DVV-10IRJFf22m86ulkG-2" value="" style="ellipse;whiteSpace=wrap;html=1;" vertex="1" parent="1">
          <mxGeometry x="590" y="10" width="120" height="80" as="geometry" />
        </mxCell>
        <mxCell id="DVV-10IRJFf22m86ulkG-4" value="" style="endArrow=none;html=1;rounded=0;" edge="1" parent="1">
          <mxGeometry width="50" height="50" relative="1" as="geometry">
            <mxPoint x="500" y="70" as="sourcePoint" />
            <mxPoint x="550" y="20" as="targetPoint" />
          </mxGeometry>
        </mxCell>
        <mxCell id="DVV-10IRJFf22m86ulkG-14" value="" style="group" vertex="1" connectable="0" parent="1">
          <mxGeometry x="20" y="120" width="250" height="180" as="geometry" />
        </mxCell>
        <mxCell id="DVV-10IRJFf22m86ulkG-11" value="" style="rhombus;whiteSpace=wrap;html=1;fontFamily=Helvetica;fontSize=11;fontColor=default;" vertex="1" parent="DVV-10IRJFf22m86ulkG-14">
          <mxGeometry x="170" y="50" width="80" height="80" as="geometry" />
        </mxCell>
        <mxCell id="DVV-10IRJFf22m86ulkG-12" style="edgeStyle=none;shape=connector;rounded=0;orthogonalLoop=1;jettySize=auto;html=1;exitX=0.5;exitY=0;exitDx=0;exitDy=0;entryX=0.5;entryY=0;entryDx=0;entryDy=0;labelBackgroundColor=default;fontFamily=Helvetica;fontSize=11;fontColor=default;endArrow=none;strokeColor=default;" edge="1" parent="DVV-10IRJFf22m86ulkG-14" source="DVV-10IRJFf22m86ulkG-10" target="DVV-10IRJFf22m86ulkG-11">
          <mxGeometry relative="1" as="geometry">
            <Array as="points">
              <mxPoint x="60" />
              <mxPoint x="210" />
            </Array>
          </mxGeometry>
        </mxCell>
        <mxCell id="DVV-10IRJFf22m86ulkG-13" style="edgeStyle=none;shape=connector;rounded=0;orthogonalLoop=1;jettySize=auto;html=1;entryX=0.5;entryY=1;entryDx=0;entryDy=0;labelBackgroundColor=default;fontFamily=Helvetica;fontSize=11;fontColor=default;endArrow=none;strokeColor=default;exitX=0.5;exitY=1;exitDx=0;exitDy=0;" edge="1" parent="DVV-10IRJFf22m86ulkG-14" source="DVV-10IRJFf22m86ulkG-10" target="DVV-10IRJFf22m86ulkG-11">
          <mxGeometry relative="1" as="geometry">
            <mxPoint x="60" y="130" as="sourcePoint" />
            <Array as="points">
              <mxPoint x="60" y="180" />
              <mxPoint x="210" y="180" />
            </Array>
          </mxGeometry>
        </mxCell>
        <mxCell id="DVV-10IRJFf22m86ulkG-25" value="" style="group" vertex="1" connectable="0" parent="DVV-10IRJFf22m86ulkG-14">
          <mxGeometry y="40" width="120" height="100" as="geometry" />
        </mxCell>
        <mxCell id="DVV-10IRJFf22m86ulkG-10" value="" style="rounded=0;whiteSpace=wrap;html=1;fontFamily=Helvetica;fontSize=11;fontColor=default;" vertex="1" parent="DVV-10IRJFf22m86ulkG-25">
          <mxGeometry y="20" width="120" height="60" as="geometry" />
        </mxCell>
        <mxCell id="DVV-10IRJFf22m86ulkG-23" value="(1,1)" style="text;html=1;strokeColor=none;fillColor=none;align=center;verticalAlign=middle;whiteSpace=wrap;rounded=0;fontFamily=Helvetica;fontSize=9;fontColor=default;" vertex="1" parent="DVV-10IRJFf22m86ulkG-25">
          <mxGeometry x="30" width="30" height="20" as="geometry" />
        </mxCell>
        <mxCell id="DVV-10IRJFf22m86ulkG-24" value="(1,1)" style="text;html=1;strokeColor=none;fillColor=none;align=center;verticalAlign=middle;whiteSpace=wrap;rounded=0;fontFamily=Helvetica;fontSize=9;fontColor=default;" vertex="1" parent="DVV-10IRJFf22m86ulkG-25">
          <mxGeometry x="60" y="80" width="30" height="20" as="geometry" />
        </mxCell>
        <mxCell id="DVV-10IRJFf22m86ulkG-20" value="" style="group" vertex="1" connectable="0" parent="1">
          <mxGeometry x="300" y="120" width="150" height="60" as="geometry" />
        </mxCell>
        <mxCell id="DVV-10IRJFf22m86ulkG-21" value="" style="rounded=0;whiteSpace=wrap;html=1;" vertex="1" parent="DVV-10IRJFf22m86ulkG-20">
          <mxGeometry x="30" width="120" height="60" as="geometry" />
        </mxCell>
        <mxCell id="DVV-10IRJFf22m86ulkG-22" value="(1,1)" style="text;html=1;strokeColor=none;fillColor=none;align=center;verticalAlign=middle;whiteSpace=wrap;rounded=0;fontFamily=Helvetica;fontSize=9;fontColor=default;" vertex="1" parent="DVV-10IRJFf22m86ulkG-20">
          <mxGeometry y="10" width="30" height="20" as="geometry" />
        </mxCell>
        <mxCell id="DVV-10IRJFf22m86ulkG-27" value="" style="group" vertex="1" connectable="0" parent="1">
          <mxGeometry x="30" y="10" width="420" height="80" as="geometry" />
        </mxCell>
        <mxCell id="DVV-10IRJFf22m86ulkG-3" value="&lt;span style=&quot;color: rgba(0, 0, 0, 0); font-family: monospace; font-size: 0px; text-align: start;&quot;&gt;%3CmxGraphModel%3E%3Croot%3E%3CmxCell%20id%3D%220%22%2F%3E%3CmxCell%20id%3D%221%22%20parent%3D%220%22%2F%3E%3CmxCell%20id%3D%222%22%20value%3D%22%22%20style%3D%22group%22%20vertex%3D%221%22%20connectable%3D%220%22%20parent%3D%221%22%3E%3CmxGeometry%20x%3D%22300%22%20y%3D%22120%22%20width%3D%22150%22%20height%3D%2260%22%20as%3D%22geometry%22%2F%3E%3C%2FmxCell%3E%3CmxCell%20id%3D%223%22%20value%3D%22%22%20style%3D%22rounded%3D0%3BwhiteSpace%3Dwrap%3Bhtml%3D1%3B%22%20vertex%3D%221%22%20parent%3D%222%22%3E%3CmxGeometry%20x%3D%2230%22%20width%3D%22120%22%20height%3D%2260%22%20as%3D%22geometry%22%2F%3E%3C%2FmxCell%3E%3CmxCell%20id%3D%224%22%20value%3D%22(1%2C1)%22%20style%3D%22text%3Bhtml%3D1%3BstrokeColor%3Dnone%3BfillColor%3Dnone%3Balign%3Dcenter%3BverticalAlign%3Dmiddle%3BwhiteSpace%3Dwrap%3Brounded%3D0%3BfontFamily%3DHelvetica%3BfontSize%3D9%3BfontColor%3Ddefault%3B%22%20vertex%3D%221%22%20parent%3D%222%22%3E%3CmxGeometry%20y%3D%2210%22%20width%3D%2230%22%20height%3D%2220%22%20as%3D%22geometry%22%2F%3E%3C%2FmxCell%3E%3C%2Froot%3E%3C%2FmxGraphModel%3E&lt;/span&gt;&lt;span style=&quot;color: rgba(0, 0, 0, 0); font-family: monospace; font-size: 0px; text-align: start;&quot;&gt;%3CmxGraphModel%3E%3Croot%3E%3CmxCell%20id%3D%220%22%2F%3E%3CmxCell%20id%3D%221%22%20parent%3D%220%22%2F%3E%3CmxCell%20id%3D%222%22%20value%3D%22%22%20style%3D%22group%22%20vertex%3D%221%22%20connectable%3D%220%22%20parent%3D%221%22%3E%3CmxGeometry%20x%3D%22300%22%20y%3D%22120%22%20width%3D%22150%22%20height%3D%2260%22%20as%3D%22geometry%22%2F%3E%3C%2FmxCell%3E%3CmxCell%20id%3D%223%22%20value%3D%22%22%20style%3D%22rounded%3D0%3BwhiteSpace%3Dwrap%3Bhtml%3D1%3B%22%20vertex%3D%221%22%20parent%3D%222%22%3E%3CmxGeometry%20x%3D%2230%22%20width%3D%22120%22%20height%3D%2260%22%20as%3D%22geometry%22%2F%3E%3C%2FmxCell%3E%3CmxCell%20id%3D%224%22%20value%3D%22(1%2C1)%22%20style%3D%22text%3Bhtml%3D1%3BstrokeColor%3Dnone%3BfillColor%3Dnone%3Balign%3Dcenter%3BverticalAlign%3Dmiddle%3BwhiteSpace%3Dwrap%3Brounded%3D0%3BfontFamily%3DHelvetica%3BfontSize%3D9%3BfontColor%3Ddefault%3B%22%20vertex%3D%221%22%20parent%3D%222%22%3E%3CmxGeometry%20y%3D%2210%22%20width%3D%2230%22%20height%3D%2220%22%20as%3D%22geometry%22%2F%3E%3C%2FmxCell%3E%3C%2Froot%3E%3C%2FmxGraphModel%3E&lt;/span&gt;" style="rhombus;whiteSpace=wrap;html=1;" vertex="1" parent="DVV-10IRJFf22m86ulkG-27">
          <mxGeometry x="160" width="80" height="80" as="geometry" />
        </mxCell>
        <mxCell id="DVV-10IRJFf22m86ulkG-18" value="" style="group" vertex="1" connectable="0" parent="DVV-10IRJFf22m86ulkG-27">
          <mxGeometry y="10" width="150" height="60" as="geometry" />
        </mxCell>
        <mxCell id="DVV-10IRJFf22m86ulkG-1" value="" style="rounded=0;whiteSpace=wrap;html=1;" vertex="1" parent="DVV-10IRJFf22m86ulkG-18">
          <mxGeometry width="120" height="60" as="geometry" />
        </mxCell>
        <mxCell id="DVV-10IRJFf22m86ulkG-15" value="(1,1)" style="text;html=1;strokeColor=none;fillColor=none;align=center;verticalAlign=middle;whiteSpace=wrap;rounded=0;fontFamily=Helvetica;fontSize=9;fontColor=default;" vertex="1" parent="DVV-10IRJFf22m86ulkG-18">
          <mxGeometry x="120" y="10" width="30" height="20" as="geometry" />
        </mxCell>
        <mxCell id="DVV-10IRJFf22m86ulkG-7" style="edgeStyle=none;shape=connector;rounded=0;orthogonalLoop=1;jettySize=auto;html=1;labelBackgroundColor=default;fontFamily=Helvetica;fontSize=11;fontColor=default;endArrow=none;strokeColor=default;" edge="1" parent="DVV-10IRJFf22m86ulkG-27" source="DVV-10IRJFf22m86ulkG-1" target="DVV-10IRJFf22m86ulkG-3">
          <mxGeometry relative="1" as="geometry" />
        </mxCell>
        <mxCell id="DVV-10IRJFf22m86ulkG-19" value="" style="group" vertex="1" connectable="0" parent="DVV-10IRJFf22m86ulkG-27">
          <mxGeometry x="270" y="10" width="150" height="60" as="geometry" />
        </mxCell>
        <mxCell id="DVV-10IRJFf22m86ulkG-8" value="" style="rounded=0;whiteSpace=wrap;html=1;" vertex="1" parent="DVV-10IRJFf22m86ulkG-19">
          <mxGeometry x="30" width="120" height="60" as="geometry" />
        </mxCell>
        <mxCell id="DVV-10IRJFf22m86ulkG-17" value="(1,1)" style="text;html=1;strokeColor=none;fillColor=none;align=center;verticalAlign=middle;whiteSpace=wrap;rounded=0;fontFamily=Helvetica;fontSize=9;fontColor=default;" vertex="1" parent="DVV-10IRJFf22m86ulkG-19">
          <mxGeometry y="10" width="30" height="20" as="geometry" />
        </mxCell>
        <mxCell id="DVV-10IRJFf22m86ulkG-9" style="edgeStyle=none;shape=connector;rounded=0;orthogonalLoop=1;jettySize=auto;html=1;entryX=0;entryY=0.5;entryDx=0;entryDy=0;labelBackgroundColor=default;fontFamily=Helvetica;fontSize=11;fontColor=default;endArrow=none;strokeColor=default;" edge="1" parent="DVV-10IRJFf22m86ulkG-27" source="DVV-10IRJFf22m86ulkG-3" target="DVV-10IRJFf22m86ulkG-8">
          <mxGeometry relative="1" as="geometry" />
        </mxCell>
        <mxCell id="DVV-10IRJFf22m86ulkG-28" value="" style="group" vertex="1" connectable="0" parent="1">
          <mxGeometry x="160" y="545" width="420" height="80" as="geometry" />
        </mxCell>
        <mxCell id="DVV-10IRJFf22m86ulkG-29" value="xuất" style="rhombus;whiteSpace=wrap;html=1;" vertex="1" parent="DVV-10IRJFf22m86ulkG-28">
          <mxGeometry x="160" width="80" height="80" as="geometry" />
        </mxCell>
        <mxCell id="DVV-10IRJFf22m86ulkG-30" value="" style="group" vertex="1" connectable="0" parent="DVV-10IRJFf22m86ulkG-28">
          <mxGeometry y="10" width="150" height="60" as="geometry" />
        </mxCell>
        <mxCell id="DVV-10IRJFf22m86ulkG-31" value="Phiếu nhập" style="rounded=0;whiteSpace=wrap;html=1;" vertex="1" parent="DVV-10IRJFf22m86ulkG-30">
          <mxGeometry width="120" height="60" as="geometry" />
        </mxCell>
        <mxCell id="DVV-10IRJFf22m86ulkG-32" value="(1,1)" style="text;html=1;strokeColor=none;fillColor=none;align=center;verticalAlign=middle;whiteSpace=wrap;rounded=0;fontFamily=Helvetica;fontSize=9;fontColor=default;" vertex="1" parent="DVV-10IRJFf22m86ulkG-30">
          <mxGeometry x="120" y="10" width="30" height="20" as="geometry" />
        </mxCell>
        <mxCell id="DVV-10IRJFf22m86ulkG-63" style="edgeStyle=none;shape=connector;rounded=0;orthogonalLoop=1;jettySize=auto;html=1;exitX=0;exitY=0.5;exitDx=0;exitDy=0;labelBackgroundColor=default;fontFamily=Helvetica;fontSize=9;fontColor=default;endArrow=none;strokeColor=default;" edge="1" parent="DVV-10IRJFf22m86ulkG-30" source="DVV-10IRJFf22m86ulkG-31" target="DVV-10IRJFf22m86ulkG-31">
          <mxGeometry relative="1" as="geometry" />
        </mxCell>
        <mxCell id="DVV-10IRJFf22m86ulkG-33" style="edgeStyle=none;shape=connector;rounded=0;orthogonalLoop=1;jettySize=auto;html=1;labelBackgroundColor=default;fontFamily=Helvetica;fontSize=11;fontColor=default;endArrow=none;strokeColor=default;" edge="1" parent="DVV-10IRJFf22m86ulkG-28" source="DVV-10IRJFf22m86ulkG-31" target="DVV-10IRJFf22m86ulkG-29">
          <mxGeometry relative="1" as="geometry" />
        </mxCell>
        <mxCell id="DVV-10IRJFf22m86ulkG-34" value="" style="group" vertex="1" connectable="0" parent="DVV-10IRJFf22m86ulkG-28">
          <mxGeometry x="270" y="10" width="150" height="60" as="geometry" />
        </mxCell>
        <mxCell id="DVV-10IRJFf22m86ulkG-35" value="Nhà cung cấp" style="rounded=0;whiteSpace=wrap;html=1;" vertex="1" parent="DVV-10IRJFf22m86ulkG-34">
          <mxGeometry x="30" width="120" height="60" as="geometry" />
        </mxCell>
        <mxCell id="DVV-10IRJFf22m86ulkG-36" value="(1,n)" style="text;html=1;strokeColor=none;fillColor=none;align=center;verticalAlign=middle;whiteSpace=wrap;rounded=0;fontFamily=Helvetica;fontSize=9;fontColor=default;" vertex="1" parent="DVV-10IRJFf22m86ulkG-34">
          <mxGeometry y="10" width="30" height="20" as="geometry" />
        </mxCell>
        <mxCell id="DVV-10IRJFf22m86ulkG-37" style="edgeStyle=none;shape=connector;rounded=0;orthogonalLoop=1;jettySize=auto;html=1;entryX=0;entryY=0.5;entryDx=0;entryDy=0;labelBackgroundColor=default;fontFamily=Helvetica;fontSize=11;fontColor=default;endArrow=none;strokeColor=default;" edge="1" parent="DVV-10IRJFf22m86ulkG-28" source="DVV-10IRJFf22m86ulkG-29" target="DVV-10IRJFf22m86ulkG-35">
          <mxGeometry relative="1" as="geometry" />
        </mxCell>
        <mxCell id="DVV-10IRJFf22m86ulkG-65" value="(1,1)" style="text;html=1;strokeColor=none;fillColor=none;align=center;verticalAlign=middle;whiteSpace=wrap;rounded=0;fontFamily=Helvetica;fontSize=9;fontColor=default;" vertex="1" parent="DVV-10IRJFf22m86ulkG-28">
          <mxGeometry x="30" y="-10" width="30" height="20" as="geometry" />
        </mxCell>
        <mxCell id="DVV-10IRJFf22m86ulkG-38" value="" style="group" vertex="1" connectable="0" parent="1">
          <mxGeometry x="160" y="730" width="420" height="80" as="geometry" />
        </mxCell>
        <mxCell id="DVV-10IRJFf22m86ulkG-39" value="bố trí" style="rhombus;whiteSpace=wrap;html=1;" vertex="1" parent="DVV-10IRJFf22m86ulkG-38">
          <mxGeometry x="160" width="80" height="80" as="geometry" />
        </mxCell>
        <mxCell id="DVV-10IRJFf22m86ulkG-40" value="" style="group" vertex="1" connectable="0" parent="DVV-10IRJFf22m86ulkG-38">
          <mxGeometry y="10" width="150" height="60" as="geometry" />
        </mxCell>
        <mxCell id="DVV-10IRJFf22m86ulkG-41" value="Quầy hàng" style="rounded=0;whiteSpace=wrap;html=1;" vertex="1" parent="DVV-10IRJFf22m86ulkG-40">
          <mxGeometry width="120" height="60" as="geometry" />
        </mxCell>
        <mxCell id="DVV-10IRJFf22m86ulkG-42" value="(0,n)" style="text;html=1;strokeColor=none;fillColor=none;align=center;verticalAlign=middle;whiteSpace=wrap;rounded=0;fontFamily=Helvetica;fontSize=9;fontColor=default;" vertex="1" parent="DVV-10IRJFf22m86ulkG-40">
          <mxGeometry x="120" y="10" width="30" height="20" as="geometry" />
        </mxCell>
        <mxCell id="DVV-10IRJFf22m86ulkG-43" style="edgeStyle=none;shape=connector;rounded=0;orthogonalLoop=1;jettySize=auto;html=1;labelBackgroundColor=default;fontFamily=Helvetica;fontSize=11;fontColor=default;endArrow=none;strokeColor=default;" edge="1" parent="DVV-10IRJFf22m86ulkG-38" source="DVV-10IRJFf22m86ulkG-41" target="DVV-10IRJFf22m86ulkG-39">
          <mxGeometry relative="1" as="geometry" />
        </mxCell>
        <mxCell id="DVV-10IRJFf22m86ulkG-44" value="" style="group" vertex="1" connectable="0" parent="DVV-10IRJFf22m86ulkG-38">
          <mxGeometry x="270" y="10" width="150" height="60" as="geometry" />
        </mxCell>
        <mxCell id="DVV-10IRJFf22m86ulkG-45" value="Sản phẩm" style="rounded=0;whiteSpace=wrap;html=1;" vertex="1" parent="DVV-10IRJFf22m86ulkG-44">
          <mxGeometry x="30" width="120" height="60" as="geometry" />
        </mxCell>
        <mxCell id="DVV-10IRJFf22m86ulkG-46" value="(0,1)" style="text;html=1;strokeColor=none;fillColor=none;align=center;verticalAlign=middle;whiteSpace=wrap;rounded=0;fontFamily=Helvetica;fontSize=9;fontColor=default;" vertex="1" parent="DVV-10IRJFf22m86ulkG-44">
          <mxGeometry y="10" width="30" height="20" as="geometry" />
        </mxCell>
        <mxCell id="DVV-10IRJFf22m86ulkG-47" style="edgeStyle=none;shape=connector;rounded=0;orthogonalLoop=1;jettySize=auto;html=1;entryX=0;entryY=0.5;entryDx=0;entryDy=0;labelBackgroundColor=default;fontFamily=Helvetica;fontSize=11;fontColor=default;endArrow=none;strokeColor=default;" edge="1" parent="DVV-10IRJFf22m86ulkG-38" source="DVV-10IRJFf22m86ulkG-39" target="DVV-10IRJFf22m86ulkG-45">
          <mxGeometry relative="1" as="geometry" />
        </mxCell>
        <mxCell id="DVV-10IRJFf22m86ulkG-48" value="" style="group" vertex="1" connectable="0" parent="1">
          <mxGeometry x="160" y="340" width="420" height="90" as="geometry" />
        </mxCell>
        <mxCell id="DVV-10IRJFf22m86ulkG-49" value="xuất" style="rhombus;whiteSpace=wrap;html=1;" vertex="1" parent="DVV-10IRJFf22m86ulkG-48">
          <mxGeometry x="160" width="80" height="80" as="geometry" />
        </mxCell>
        <mxCell id="DVV-10IRJFf22m86ulkG-50" value="" style="group" vertex="1" connectable="0" parent="DVV-10IRJFf22m86ulkG-48">
          <mxGeometry y="10" width="150" height="60" as="geometry" />
        </mxCell>
        <mxCell id="DVV-10IRJFf22m86ulkG-51" value="Nhân viên" style="rounded=0;whiteSpace=wrap;html=1;" vertex="1" parent="DVV-10IRJFf22m86ulkG-50">
          <mxGeometry width="120" height="60" as="geometry" />
        </mxCell>
        <mxCell id="DVV-10IRJFf22m86ulkG-52" value="(1,1)" style="text;html=1;strokeColor=none;fillColor=none;align=center;verticalAlign=middle;whiteSpace=wrap;rounded=0;fontFamily=Helvetica;fontSize=9;fontColor=default;" vertex="1" parent="DVV-10IRJFf22m86ulkG-50">
          <mxGeometry x="120" y="10" width="30" height="20" as="geometry" />
        </mxCell>
        <mxCell id="DVV-10IRJFf22m86ulkG-53" style="edgeStyle=none;shape=connector;rounded=0;orthogonalLoop=1;jettySize=auto;html=1;labelBackgroundColor=default;fontFamily=Helvetica;fontSize=11;fontColor=default;endArrow=none;strokeColor=default;" edge="1" parent="DVV-10IRJFf22m86ulkG-48" source="DVV-10IRJFf22m86ulkG-51" target="DVV-10IRJFf22m86ulkG-49">
          <mxGeometry relative="1" as="geometry" />
        </mxCell>
        <mxCell id="DVV-10IRJFf22m86ulkG-54" value="" style="group" vertex="1" connectable="0" parent="DVV-10IRJFf22m86ulkG-48">
          <mxGeometry x="270" y="10" width="150" height="60" as="geometry" />
        </mxCell>
        <mxCell id="DVV-10IRJFf22m86ulkG-55" value="Hoá đơn" style="rounded=0;whiteSpace=wrap;html=1;" vertex="1" parent="DVV-10IRJFf22m86ulkG-54">
          <mxGeometry x="30" width="120" height="60" as="geometry" />
        </mxCell>
        <mxCell id="DVV-10IRJFf22m86ulkG-56" value="(1,1)" style="text;html=1;strokeColor=none;fillColor=none;align=center;verticalAlign=middle;whiteSpace=wrap;rounded=0;fontFamily=Helvetica;fontSize=9;fontColor=default;" vertex="1" parent="DVV-10IRJFf22m86ulkG-54">
          <mxGeometry y="10" width="30" height="20" as="geometry" />
        </mxCell>
        <mxCell id="DVV-10IRJFf22m86ulkG-57" style="edgeStyle=none;shape=connector;rounded=0;orthogonalLoop=1;jettySize=auto;html=1;entryX=0;entryY=0.5;entryDx=0;entryDy=0;labelBackgroundColor=default;fontFamily=Helvetica;fontSize=11;fontColor=default;endArrow=none;strokeColor=default;" edge="1" parent="DVV-10IRJFf22m86ulkG-48" source="DVV-10IRJFf22m86ulkG-49" target="DVV-10IRJFf22m86ulkG-55">
          <mxGeometry relative="1" as="geometry" />
        </mxCell>
        <mxCell id="DVV-10IRJFf22m86ulkG-64" value="(0,n)" style="text;html=1;strokeColor=none;fillColor=none;align=center;verticalAlign=middle;whiteSpace=wrap;rounded=0;fontFamily=Helvetica;fontSize=9;fontColor=default;" vertex="1" parent="DVV-10IRJFf22m86ulkG-48">
          <mxGeometry x="30" y="70" width="30" height="20" as="geometry" />
        </mxCell>
        <mxCell id="DVV-10IRJFf22m86ulkG-60" value="Xuất" style="rhombus;whiteSpace=wrap;html=1;" vertex="1" parent="1">
          <mxGeometry x="180" y="440" width="80" height="80" as="geometry" />
        </mxCell>
        <mxCell id="DVV-10IRJFf22m86ulkG-61" style="edgeStyle=none;shape=connector;rounded=0;orthogonalLoop=1;jettySize=auto;html=1;entryX=0.5;entryY=0;entryDx=0;entryDy=0;labelBackgroundColor=default;fontFamily=Helvetica;fontSize=9;fontColor=default;endArrow=none;strokeColor=default;" edge="1" parent="1" source="DVV-10IRJFf22m86ulkG-51" target="DVV-10IRJFf22m86ulkG-60">
          <mxGeometry relative="1" as="geometry" />
        </mxCell>
        <mxCell id="DVV-10IRJFf22m86ulkG-62" style="edgeStyle=none;shape=connector;rounded=0;orthogonalLoop=1;jettySize=auto;html=1;exitX=0.5;exitY=0;exitDx=0;exitDy=0;entryX=0.5;entryY=1;entryDx=0;entryDy=0;labelBackgroundColor=default;fontFamily=Helvetica;fontSize=9;fontColor=default;endArrow=none;strokeColor=default;" edge="1" parent="1" source="DVV-10IRJFf22m86ulkG-31" target="DVV-10IRJFf22m86ulkG-60">
          <mxGeometry relative="1" as="geometry" />
        </mxCell>
        <mxCell id="DVV-10IRJFf22m86ulkG-66" value="" style="group" vertex="1" connectable="0" parent="1">
          <mxGeometry x="810" y="350" width="150" height="60" as="geometry" />
        </mxCell>
        <mxCell id="DVV-10IRJFf22m86ulkG-67" value="Khách hàng" style="rounded=0;whiteSpace=wrap;html=1;" vertex="1" parent="DVV-10IRJFf22m86ulkG-66">
          <mxGeometry x="30" width="120" height="60" as="geometry" />
        </mxCell>
        <mxCell id="DVV-10IRJFf22m86ulkG-68" value="(1,1)" style="text;html=1;strokeColor=none;fillColor=none;align=center;verticalAlign=middle;whiteSpace=wrap;rounded=0;fontFamily=Helvetica;fontSize=9;fontColor=default;" vertex="1" parent="DVV-10IRJFf22m86ulkG-66">
          <mxGeometry y="10" width="30" height="20" as="geometry" />
        </mxCell>
        <mxCell id="DVV-10IRJFf22m86ulkG-76" style="edgeStyle=none;shape=connector;rounded=0;orthogonalLoop=1;jettySize=auto;html=1;entryX=1;entryY=0.5;entryDx=0;entryDy=0;labelBackgroundColor=default;fontFamily=Helvetica;fontSize=9;fontColor=default;endArrow=none;strokeColor=default;" edge="1" parent="1" source="DVV-10IRJFf22m86ulkG-75" target="DVV-10IRJFf22m86ulkG-21">
          <mxGeometry relative="1" as="geometry" />
        </mxCell>
        <mxCell id="DVV-10IRJFf22m86ulkG-75" value="&lt;span style=&quot;color: rgba(0, 0, 0, 0); font-family: monospace; font-size: 0px; text-align: start;&quot;&gt;%3CmxGraphModel%3E%3Croot%3E%3CmxCell%20id%3D%220%22%2F%3E%3CmxCell%20id%3D%221%22%20parent%3D%220%22%2F%3E%3CmxCell%20id%3D%222%22%20value%3D%22%22%20style%3D%22group%22%20vertex%3D%221%22%20connectable%3D%220%22%20parent%3D%221%22%3E%3CmxGeometry%20x%3D%22300%22%20y%3D%22120%22%20width%3D%22150%22%20height%3D%2260%22%20as%3D%22geometry%22%2F%3E%3C%2FmxCell%3E%3CmxCell%20id%3D%223%22%20value%3D%22%22%20style%3D%22rounded%3D0%3BwhiteSpace%3Dwrap%3Bhtml%3D1%3B%22%20vertex%3D%221%22%20parent%3D%222%22%3E%3CmxGeometry%20x%3D%2230%22%20width%3D%22120%22%20height%3D%2260%22%20as%3D%22geometry%22%2F%3E%3C%2FmxCell%3E%3CmxCell%20id%3D%224%22%20value%3D%22(1%2C1)%22%20style%3D%22text%3Bhtml%3D1%3BstrokeColor%3Dnone%3BfillColor%3Dnone%3Balign%3Dcenter%3BverticalAlign%3Dmiddle%3BwhiteSpace%3Dwrap%3Brounded%3D0%3BfontFamily%3DHelvetica%3BfontSize%3D9%3BfontColor%3Ddefault%3B%22%20vertex%3D%221%22%20parent%3D%222%22%3E%3CmxGeometry%20y%3D%2210%22%20width%3D%2230%22%20height%3D%2220%22%20as%3D%22geometry%22%2F%3E%3C%2FmxCell%3E%3C%2Froot%3E%3C%2FmxGraphModel%3E&lt;/span&gt;&lt;span style=&quot;color: rgba(0, 0, 0, 0); font-family: monospace; font-size: 0px; text-align: start;&quot;&gt;%3CmxGraphModel%3E%3Croot%3E%3CmxCell%20id%3D%220%22%2F%3E%3CmxCell%20id%3D%221%22%20parent%3D%220%22%2F%3E%3CmxCell%20id%3D%222%22%20value%3D%22%22%20style%3D%22group%22%20vertex%3D%221%22%20connectable%3D%220%22%20parent%3D%221%22%3E%3CmxGeometry%20x%3D%22300%22%20y%3D%22120%22%20width%3D%22150%22%20height%3D%2260%22%20as%3D%22geometry%22%2F%3E%3C%2FmxCell%3E%3CmxCell%20id%3D%223%22%20value%3D%22%22%20style%3D%22rounded%3D0%3BwhiteSpace%3Dwrap%3Bhtml%3D1%3B%22%20vertex%3D%221%22%20parent%3D%222%22%3E%3CmxGeometry%20x%3D%2230%22%20width%3D%22120%22%20height%3D%2260%22%20as%3D%22geometry%22%2F%3E%3C%2FmxCell%3E%3CmxCell%20id%3D%224%22%20value%3D%22(1%2C1)%22%20style%3D%22text%3Bhtml%3D1%3BstrokeColor%3Dnone%3BfillColor%3Dnone%3Balign%3Dcenter%3BverticalAlign%3Dmiddle%3BwhiteSpace%3Dwrap%3Brounded%3D0%3BfontFamily%3DHelvetica%3BfontSize%3D9%3BfontColor%3Ddefault%3B%22%20vertex%3D%221%22%20parent%3D%222%22%3E%3CmxGeometry%20y%3D%2210%22%20width%3D%2230%22%20height%3D%2220%22%20as%3D%22geometry%22%2F%3E%3C%2FmxCell%3E%3C%2Froot%3E%3C%2FmxGraphModel%3E&lt;/span&gt;" style="rhombus;whiteSpace=wrap;html=1;" vertex="1" parent="1">
          <mxGeometry x="500" y="110" width="80" height="80" as="geometry" />
        </mxCell>
        <mxCell id="DVV-10IRJFf22m86ulkG-80" style="edgeStyle=none;shape=connector;rounded=0;orthogonalLoop=1;jettySize=auto;html=1;entryX=1;entryY=1;entryDx=0;entryDy=0;labelBackgroundColor=default;fontFamily=Helvetica;fontSize=9;fontColor=default;endArrow=none;strokeColor=default;" edge="1" parent="1" source="DVV-10IRJFf22m86ulkG-77" target="DVV-10IRJFf22m86ulkG-68">
          <mxGeometry relative="1" as="geometry" />
        </mxCell>
        <object label="&lt;div style=&quot;text-align: start;&quot;&gt;&lt;span style=&quot;background-color: initial; font-size: 0px;&quot;&gt;&lt;font face=&quot;monospace&quot; color=&quot;rgba(0, 0, 0, 0)&quot;&gt;dsadsads&lt;/font&gt;&lt;/span&gt;&lt;/div&gt;" ds="dsa" id="DVV-10IRJFf22m86ulkG-77">
          <mxCell style="rhombus;whiteSpace=wrap;html=1;" vertex="1" parent="1">
            <mxGeometry x="660" y="340" width="80" height="80" as="geometry" />
          </mxCell>
        </object>
        <mxCell id="DVV-10IRJFf22m86ulkG-81" style="edgeStyle=none;shape=connector;rounded=0;orthogonalLoop=1;jettySize=auto;html=1;entryX=0;entryY=0.5;entryDx=0;entryDy=0;labelBackgroundColor=default;fontFamily=Helvetica;fontSize=9;fontColor=default;endArrow=none;strokeColor=default;" edge="1" parent="1" source="DVV-10IRJFf22m86ulkG-55" target="DVV-10IRJFf22m86ulkG-77">
          <mxGeometry relative="1" as="geometry" />
        </mxCell>
      </root>
    </mxGraphModel>
  </diagram>
</mxfile>
